<svg xmlns="http://www.w3.org/2000/svg" viewBox="0 0 800 650"><defs><linearGradient id="a" x2="1" y2="1"><stop stop-color="#dce9ff"/><stop offset="1" stop-color="#fff0df"/></linearGradient><filter id="s"><feDropShadow dy="18" stdDeviation="18" flood-opacity=".16"/></filter></defs><rect width="800" height="650" rx="36" fill="url(#a)"/><g filter="url(#s)" transform="translate(123 82)"><rect width="554" height="486" rx="30" fill="#fff"/><rect x="42" y="42" width="470" height="82" rx="18" fill="#0b1220"/><rect x="72" y="69" width="180" height="12" rx="6" fill="#2f70f0"/><rect x="72" y="92" width="310" height="8" rx="4" fill="#687890"/><g transform="translate(42 157)"><rect width="145" height="121" rx="18" fill="#e9f1fe"/><circle cx="72" cy="60" r="33" fill="#185adb"/><path d="m56 61 11 11 23-27" fill="none" stroke="#fff" stroke-width="8" stroke-linecap="round" stroke-linejoin="round"/></g><g transform="translate(205 157)" fill="#dce5f2"><rect width="307" height="15" rx="7"/><rect y="34" width="254" height="11" rx="5"/><rect y="63" width="282" height="11" rx="5"/><rect y="92" width="205" height="11" rx="5"/></g><g transform="translate(42 315)"><rect width="470" height="120" rx="18" fill="#f7f9fc"/><rect x="24" y="25" width="120" height="12" rx="6" fill="#ff8a1f"/><rect x="24" y="56" width="400" height="10" rx="5" fill="#d1dbe8"/><rect x="24" y="82" width="330" height="10" rx="5" fill="#d1dbe8"/></g></g></svg>
