<svg xmlns="http://www.w3.org/2000/svg" viewBox="0 0 640 460"><defs><linearGradient id="a"><stop stop-color="#edf4ff"/><stop offset="1" stop-color="#fff5e9"/></linearGradient><filter id="s"><feDropShadow dy="20" stdDeviation="18" flood-opacity=".16"/></filter></defs><rect width="640" height="460" fill="url(#a)"/><g transform="translate(75 116) rotate(-5 245 120)" filter="url(#s)"><rect width="490" height="226" rx="25" fill="#111827"/><g fill="#273449" stroke="#43536b" stroke-width="2"><rect x="24" y="25" width="32" height="31" rx="7"/><rect x="64" y="25" width="32" height="31" rx="7"/><rect x="104" y="25" width="32" height="31" rx="7"/><rect x="144" y="25" width="32" height="31" rx="7"/><rect x="184" y="25" width="32" height="31" rx="7"/><rect x="224" y="25" width="32" height="31" rx="7"/><rect x="264" y="25" width="32" height="31" rx="7"/><rect x="304" y="25" width="32" height="31" rx="7"/><rect x="344" y="25" width="32" height="31" rx="7"/><rect x="384" y="25" width="32" height="31" rx="7"/><rect x="424" y="25" width="32" height="31" rx="7"/><rect x="24" y="67" width="32" height="31" rx="7"/><rect x="64" y="67" width="32" height="31" rx="7"/><rect x="104" y="67" width="32" height="31" rx="7"/><rect x="144" y="67" width="32" height="31" rx="7"/><rect x="184" y="67" width="32" height="31" rx="7"/><rect x="224" y="67" width="32" height="31" rx="7"/><rect x="264" y="67" width="32" height="31" rx="7"/><rect x="304" y="67" width="32" height="31" rx="7"/><rect x="344" y="67" width="32" height="31" rx="7"/><rect x="384" y="67" width="32" height="31" rx="7"/><rect x="424" y="67" width="32" height="31" rx="7"/><rect x="24" y="109" width="32" height="31" rx="7"/><rect x="64" y="109" width="32" height="31" rx="7"/><rect x="104" y="109" width="32" height="31" rx="7"/><rect x="144" y="109" width="32" height="31" rx="7"/><rect x="184" y="109" width="32" height="31" rx="7"/><rect x="224" y="109" width="32" height="31" rx="7"/><rect x="264" y="109" width="32" height="31" rx="7"/><rect x="304" y="109" width="32" height="31" rx="7"/><rect x="344" y="109" width="32" height="31" rx="7"/><rect x="384" y="109" width="32" height="31" rx="7"/><rect x="424" y="109" width="32" height="31" rx="7"/><rect x="24" y="151" width="32" height="31" rx="7"/><rect x="64" y="151" width="32" height="31" rx="7"/><rect x="104" y="151" width="32" height="31" rx="7"/><rect x="144" y="151" width="32" height="31" rx="7"/><rect x="184" y="151" width="32" height="31" rx="7"/><rect x="224" y="151" width="32" height="31" rx="7"/><rect x="264" y="151" width="32" height="31" rx="7"/><rect x="304" y="151" width="32" height="31" rx="7"/><rect x="344" y="151" width="32" height="31" rx="7"/><rect x="384" y="151" width="32" height="31" rx="7"/><rect x="424" y="151" width="32" height="31" rx="7"/><rect x="24" y="193" width="32" height="31" rx="7"/><rect x="64" y="193" width="32" height="31" rx="7"/><rect x="104" y="193" width="32" height="31" rx="7"/><rect x="144" y="193" width="32" height="31" rx="7"/><rect x="184" y="193" width="32" height="31" rx="7"/><rect x="224" y="193" width="32" height="31" rx="7"/><rect x="264" y="193" width="32" height="31" rx="7"/><rect x="304" y="193" width="32" height="31" rx="7"/><rect x="344" y="193" width="32" height="31" rx="7"/><rect x="384" y="193" width="32" height="31" rx="7"/><rect x="424" y="193" width="32" height="31" rx="7"/></g><rect x="137" y="193" width="216" height="17" rx="8" fill="#ff8a1f"/></g></svg>
